<svg xmlns="http://www.w3.org/2000/svg">
<svg class="hidden">
  <symbol xmlns="http://www.w3.org/2000/svg" viewBox="0 0 32 32" id="Vue">
    <title>file_type_vue</title>
    <path d="M24.4 3.925H30l-14 24.15L2 3.925h10.71l3.29 5.6 3.22-5.6z" fill="#41b883"></path>
    <path d="M2 3.925l14 24.15 14-24.15h-5.6L16 18.415 7.53 3.925z" fill="#41b883"></path>
    <path d="M7.53 3.925L16 18.485l8.4-14.56h-5.18L16 9.525l-3.29-5.6z" fill="#35495e"></path>
  </symbol>
  <symbol xmlns="http://www.w3.org/2000/svg" viewBox="0 0 400 400" id="PHP">
    <path d="M140.413 180.927c6.17 0 10.282 1.138 12.339 3.416 2.054 2.278 2.543 6.189 1.468 11.73-1.123 5.77-3.285 9.888-6.49 12.355-3.205 2.468-8.082 3.7-14.63 3.7h-9.879l6.065-31.201h11.127zm-39.57 62.788h16.24l3.853-19.82h13.91c6.139 0 11.188-.644 15.152-1.935 3.964-1.29 7.567-3.451 10.81-6.486 2.721-2.502 4.923-5.261 6.61-8.279 1.684-3.015 2.88-6.344 3.588-9.984 1.719-8.837.422-15.72-3.886-20.652s-11.162-7.398-20.557-7.398h-31.23l-14.49 74.554zm82.185-94.411h16.113l-3.853 19.821h14.354c9.032 0 15.262 1.577 18.69 4.726 3.43 3.151 4.457 8.256 3.086 15.314l-6.742 34.693h-16.368l6.41-32.987c.73-3.753.462-6.312-.805-7.677-1.267-1.365-3.962-2.048-8.084-2.048H192.95l-8.3 42.711h-16.113l14.49-74.553zm84.344 31.623c6.17 0 10.283 1.138 12.339 3.416 2.055 2.278 2.544 6.189 1.468 11.73-1.122 5.77-3.284 9.888-6.49 12.355-3.205 2.468-8.082 3.7-14.63 3.7h-9.878l6.064-31.201h11.127zm-39.57 62.788h16.241l3.852-19.82h13.91c6.139 0 11.188-.644 15.153-1.935 3.964-1.29 7.566-3.451 10.81-6.486 2.721-2.502 4.923-5.261 6.61-8.279 1.683-3.015 2.88-6.344 3.587-9.984 1.719-8.837.422-15.72-3.886-20.652s-11.161-7.398-20.556-7.398h-31.23l-14.49 74.554z" fill="#000003"></path>
  </symbol>
  <symbol xmlns="http://www.w3.org/2000/svg" viewBox="0 0 400 400" id="loon-icon">
    <path d="M157.715 134.558h7.13v7.836h7.837v-23.368h-7.837v7.73h-7.13v-7.73h-7.837v23.368h7.837zm25.207 7.836h7.836v-15.602h6.884v-7.766h-21.604v7.766h6.884zm25.781-11.578l5.366 8.33h.141l5.366-8.33v11.578h7.8v-23.368h-8.153l-5.013 8.225-5.013-8.225h-8.154v23.368h7.66zm41.347 3.848h-10.98v-15.638h-7.8v23.368h18.779zm-111.476 17.93l11.184 125.428 50.2 13.933 50.239-13.926L261.4 152.594H138.574zm98.565 41.018h-58.87l1.405 15.755h56.067l-4.218 47.242-31.537 8.736-.021.007-31.516-8.743-2.2-24.71h15.44l1.145 12.817 17.134 4.631.021-.007 17.153-4.631 1.786-19.952H165.61l-4.155-46.521h77.057l-1.373 15.376z"></path>
  </symbol>
  <symbol xmlns="http://www.w3.org/2000/svg" viewBox="0 0 400 400" id="JS">
    <path d="M143.8 126.545h32.842v92.048c0 41.486-19.877 55.963-51.641 55.963-7.778 0-17.717-1.296-24.2-3.457l3.673-26.576c4.538 1.512 10.372 2.592 16.854 2.592 13.828 0 22.472-6.266 22.472-28.738v-91.832zm61.536 111.922c8.642 4.538 22.471 9.075 36.516 9.075 15.126 0 23.12-6.266 23.12-15.99 0-8.858-6.914-14.26-24.416-20.31-24.2-8.643-40.19-22.04-40.19-43.43 0-24.85 20.96-43.648 55.099-43.648 16.638 0 28.521 3.242 37.165 7.347l-7.347 26.36c-5.618-2.808-16.206-6.914-30.25-6.914-14.26 0-21.175 6.699-21.175 14.046 0 9.29 7.994 13.396 27.01 20.743 25.711 9.507 37.595 22.904 37.595 43.647 0 24.416-18.582 45.16-58.555 45.16-16.639 0-33.06-4.539-41.27-9.076l6.698-27.01z"></path>
  </symbol>
 
</svg>
<svg >
  <symbol xmlns="http://www.w3.org/2000/svg" viewBox="0 0 400 400" id="CSS">
    <path d="M231.05 265.55v13.818c0 7.635-6.17 13.782-13.782 13.782H113.732c-7.635 0-13.782-6.201-13.782-13.85V120.7c0-7.651 6.205-13.85 13.859-13.85h68.941v41.413c0 7.669 6.197 13.787 13.84 13.787h34.46v13.8h-62.053c-11.458 0-20.747 9.262-20.747 20.692v48.316c0 11.428 9.218 20.692 20.747 20.692h62.053zm-41.4-158.7v41.38c0 3.822 3.112 6.92 6.836 6.92h34.564l-41.4-48.3zm-20.738 75.9c-7.6 0-13.762 6.211-13.762 13.745v48.41c0 7.591 6.226 13.745 13.762 13.745h117.376c7.6 0 13.762-6.211 13.762-13.745v-48.41c0-7.591-6.226-13.745-13.762-13.745H168.912zm34.538 48.3a13.786 13.786 0 01-13.834 13.8h-6.832c-7.666 0-13.834-6.197-13.834-13.84v-20.62c0-7.723 6.194-13.84 13.834-13.84h6.832c7.652 0 13.812 6.175 13.834 13.8h-6.9c0-3.811-3.054-6.9-6.893-6.9h-6.914a6.879 6.879 0 00-6.893 6.899v20.702a6.876 6.876 0 006.893 6.899h6.914a6.879 6.879 0 006.893-6.899l6.9-.001zm20.734-34.5c-7.64 0-13.834 6.125-13.834 13.8 0 7.622 6.125 13.8 13.8 13.8h6.835c3.847 0 6.965 3.063 6.965 6.9 0 3.81-3.054 6.9-6.893 6.9h-6.914c-3.807 0-6.893-3.148-6.893-6.87v-.077h-6.9v.04c0 7.625 6.168 13.807 13.834 13.807h6.832c7.64 0 13.834-6.125 13.834-13.8 0-7.622-6.125-13.8-13.8-13.8h-6.835c-3.847 0-6.965-3.063-6.965-6.9 0-3.81 3.054-6.9 6.893-6.9h6.914c3.807 0 6.893 3.127 6.893 6.9h6.9c0-7.622-6.168-13.8-13.834-13.8h-6.832zm41.4 0c-7.64 0-13.834 6.125-13.834 13.8 0 7.622 6.125 13.8 13.8 13.8h6.835c3.847 0 6.965 3.063 6.965 6.9 0 3.81-3.054 6.9-6.893 6.9h-6.914c-3.807 0-6.893-3.148-6.893-6.87v-.077h-6.9v.04c0 7.625 6.168 13.807 13.834 13.807h6.832c7.64 0 13.834-6.125 13.834-13.8 0-7.622-6.125-13.8-13.8-13.8h-6.835c-3.847 0-6.965-3.063-6.965-6.9 0-3.81 3.054-6.9 6.893-6.9h6.914c3.807 0 6.893 3.127 6.893 6.9h6.9c0-7.622-6.168-13.8-13.834-13.8h-6.832z" ></path>
  </symbol>
</svg>