<?xml version="1.0" encoding="UTF-8" standalone="no" ?>
<!DOCTYPE svg PUBLIC "-//W3C//DTD SVG 1.1//EN" "http://www.w3.org/Graphics/SVG/1.1/DTD/svg11.dtd">
<svg xmlns="http://www.w3.org/2000/svg" xmlns:xlink="http://www.w3.org/1999/xlink" version="1.1" width="400" height="400" viewBox="0 0 400 400" xml:space="preserve">
<desc>Created with Fabric.js 3.6.2</desc>
<defs>
</defs>
<g transform="matrix(6.9 0 0 6.9 200 200)" id="document-file-css"  >
<path style="stroke: none; stroke-width: 1; stroke-dasharray: none; stroke-linecap: butt; stroke-dashoffset: 0; stroke-linejoin: miter; stroke-miterlimit: 4; fill: rgb(21,126,251); fill-rule: evenodd; opacity: 1;"  transform=" translate(-16.5, -16.5)" d="M 21 26 L 21 28.0025781 C 21 29.1090746 20.1057238 30 19.0025781 30 L 3.99742191 30 C 2.89092539 30 2 29.1012878 2 27.9926701 L 2 5.00732994 C 2 3.89833832 2.8992496 3 4.0085302 3 L 14 3 L 14 9.00189865 C 14 10.1132936 14.8980806 11 16.0059191 11 L 21 11 L 21 13 L 12.0068483 13 C 10.3462119 13 9 14.3422643 9 15.9987856 L 9 23.0012144 C 9 24.6573979 10.3359915 26 12.0068483 26 L 21 26 L 21 26 Z M 15 3 L 15 8.99707067 C 15 9.55097324 15.4509752 10 15.990778 10 L 21 10 L 15 3 L 15 3 Z M 11.9945615 14 C 10.8929956 14 10 14.9001762 10 15.992017 L 10 23.007983 C 10 24.1081436 10.9023438 25 11.9945615 25 L 29.0054385 25 C 30.1070044 25 31 24.0998238 31 23.007983 L 31 15.992017 C 31 14.8918564 30.0976562 14 29.0054385 14 L 11.9945615 14 L 11.9945615 14 Z M 16.9999916 21 C 16.9968339 22.1165689 16.1004316 23 14.9951185 23 L 14.0048815 23 C 12.8938998 23 12 22.1019194 12 20.9940809 L 12 18.0059191 C 12 16.8865548 12.897616 16 14.0048815 16 L 14.9951185 16 C 16.1041209 16 16.9968142 16.8948834 16.9999915 18 L 16 18 C 16 17.4476291 15.5573397 17 15.0010434 17 L 13.9989566 17 C 13.4472481 17 13 17.4437166 13 17.9998075 L 13 21.0001925 C 13 21.5523709 13.4426603 22 13.9989566 22 L 15.0010434 22 C 15.5527519 22 16 21.5562834 16 21.0001925 L 16.9999923 21 L 16.9999916 21 L 16.9999916 21 Z M 20.0048815 16 C 18.897616 16 18 16.8877296 18 18 C 18 19.1045695 18.8877296 20 20 20 L 20.9906311 20 C 21.5480902 20 22 20.4438648 22 21 C 22 21.5522847 21.5573397 22 21.0010434 22 L 19.9989566 22 C 19.4472481 22 19 21.543716 19 21.0044713 L 19 20.9931641 L 18 20.9931641 L 18 20.998921 C 18 22.1040864 18.8938998 23 20.0048815 23 L 20.9951185 23 C 22.102384 23 23 22.1122704 23 21 C 23 19.8954305 22.1122704 19 21 19 L 20.0093689 19 C 19.4519098 19 19 18.5561352 19 18 C 19 17.4477153 19.4426603 17 19.9989566 17 L 21.0010434 17 C 21.5527519 17 22 17.453186 22 18 L 23 18 C 23 16.8954305 22.1061002 16 20.9951185 16 L 20.0048815 16 L 20.0048815 16 Z M 26.0048815 16 C 24.897616 16 24 16.8877296 24 18 C 24 19.1045695 24.8877296 20 26 20 L 26.9906311 20 C 27.5480902 20 28 20.4438648 28 21 C 28 21.5522847 27.5573397 22 27.0010434 22 L 25.9989566 22 C 25.4472481 22 25 21.543716 25 21.0044713 L 25 20.9931641 L 24 20.9931641 L 24 20.998921 C 24 22.1040864 24.8938998 23 26.0048815 23 L 26.9951185 23 C 28.102384 23 29 22.1122704 29 21 C 29 19.8954305 28.1122704 19 27 19 L 26.0093689 19 C 25.4519098 19 25 18.5561352 25 18 C 25 17.4477153 25.4426603 17 25.9989566 17 L 27.0010434 17 C 27.5527519 17 28 17.453186 28 18 L 29 18 C 29 16.8954305 28.1061002 16 26.9951185 16 L 26.0048815 16 L 26.0048815 16 Z" stroke-linecap="round" />
</g>
</svg>